<svg width="20" height="21" viewBox="0 0 20 21" fill="none" xmlns="http://www.w3.org/2000/svg">
<g opacity="0.8">
<rect opacity="0.01" y="1" width="20" height="20" fill="white"/>
<path fill-rule="evenodd" clip-rule="evenodd" d="M13 3C14.1046 3 15 3.89543 15 5V13C15 14.1046 14.1046 15 13 15H3C1.89543 15 1 14.1046 1 13V5C1 3.89543 1.89543 3 3 3H13ZM13 5H3V13H13V5Z" fill="white"/>
<path fill-rule="evenodd" clip-rule="evenodd" d="M7.00689 6C7.5596 6 8.00766 6.44806 8.00766 7.00077V8.99923C8.00766 9.15715 7.97108 9.30652 7.90594 9.43935L7.85197 9.53609C7.67452 9.81497 7.3627 10 7.00766 10H5.00459C4.45231 10 4.00459 9.55228 4.00459 9C4.00459 8.44772 4.45231 8 5.00459 8L6.00666 8.001L6.00612 7.00077C6.00612 6.44806 6.45418 6 7.00689 6Z" fill="white"/>
<path fill-rule="evenodd" clip-rule="evenodd" d="M17 11C18.1046 11 19 11.8954 19 13V16C19 17.1046 18.1046 18 17 18H11C9.89543 18 9 17.1046 9 16V13C9 11.8954 9.89543 11 11 11H17Z" fill="white"/>
</g>
</svg>
